{"title":"Willard 2003 720p WEB-DL x264 SSloco","uid":11996060,"size":797840158,"categoryP":"video","categoryS":"hd___movies","magnet":"?xt=urn:btih:1444f566bfb7e5dae1636eb7cea7bcf85aae4b3d&amp;dn=Willard+2003+720p+WEB-DL+x264+SSloco&amp;tr=udp%3A%2F%2Ftracker.openbittorrent.com%3A80&amp;tr=udp%3A%2F%2Fopen.demonii.com%3A1337&amp;tr=udp%3A%2F%2Ftracker.coppersurfer.tk%3A6969&amp;tr=udp%3A%2F%2Fexodus.desync.com%3A6969","seeders":3,"leechers":0,"uploader":"myhoes14","files":1,"time":1433660067,"description":"Source:web-dl\n\n\n\nMedia Info\n\n\n\n\n\nFormat : MPEG-4\nFormat profile : Base Media\nCodec ID : isom\nFile size : 761 MiB\nDuration : 1h 40mn\nOverall bit rate mode : Variable\nOverall bit rate : 1 060 Kbps\nEncoded date : UTC 2015-05-30 08:04:07\nTagged date : UTC 2015-05-30 08:04:07\n\nVideo\nID : 1\nFormat : AVC\nFormat/Info : Advanced Video Codec\nFormat profile : &lt;a class=&quot;__cf_email__&quot; href=&quot;/cdn-cgi/l/email-protection&quot; data-cfemail=&quot;b4fcddd3dcf4f8809a85&quot;&gt;[email&amp;#160;protected]&lt;/a&gt;&lt;script data-cfhash='f9e31' type=&quot;text/javascript&quot;&gt;\n/* &lt;![CDATA[ */!function(){try{var t=&quot;currentScript&quot;in document?document.currentScript:function(){for(var t=document.getElementsByTagName(&quot;script&quot;),e=t.length;e--;)if(t[e].getAttribute(&quot;data-cfhash&quot;))return t[e]}();if(t&amp;&amp;t.previousSibling){var e,r,n,i,c=t.previousSibling,a=c.getAttribute(&quot;data-cfemail&quot;);if(a){for(e=&quot;&quot;,r=parseInt(a.substr(0,2),16),n=2;a.length-n;n+=2)i=parseInt(a.substr(n,2),16)^r,e+=String.fromCharCode(i);e=document.createTextNode(e),c.parentNode.replaceChild(e,c)}t.parentNode.removeChild(t);}}catch(u){}}()/* ]]&gt; */&lt;/script&gt;\nFormat settings, CABAC : Yes\nFormat settings, ReFrames : 4 frames\nCodec ID : avc1\nCodec ID/Info : Advanced Video Coding\nDuration : 1h 40mn\nBit rate : 1 000 Kbps\nMaximum bit rate : 6 840 Kbps\nWidth : 1 280 pixels\nHeight : 542 pixels\nDisplay aspect ratio : 2.35:1\nFrame rate mode : Constant\nFrame rate : 23.976 fps\nColor space : YUV\nChroma subsampling : 4:2:0\nBit depth : 8 bits\nScan type : Progressive\nBits/(Pixel*Frame) : 0.060\nStream size : 718 MiB (94%)\nWriting library : x264 core 146 r2538 121396c\nEncoding settings : cabac=1 / ref=2 / deblock=1:-1:-1 / analyse=0x3:0x113 / me=hex / subme=6 / psy=1 / psy_rd=1.00:0.15 / mixed_ref=1 / me_range=16 / chroma_me=1 / trellis=1 / 8x8dct=1 / cqm=0 / deadzone=21,11 / fast_pskip=1 / chroma_qp_offset=-3 / threads=6 / lookahead_threads=1 / sliced_threads=0 / nr=0 / decimate=1 / interlaced=0 / bluray_compat=0 / constrained_intra=0 / bframes=3 / b_pyramid=2 / b_adapt=1 / b_bias=0 / direct=1 / weightb=1 / open_gop=0 / weightp=1 / keyint=240 / keyint_min=23 / scenecut=40 / intra_refresh=0 / rc_lookahead=30 / rc=2pass / mbtree=1 / bitrate=1000 / ratetol=1.0 / qcomp=0.60 / qpmin=0 / qpmax=69 / qpstep=4 / cplxblur=20.0 / qblur=0.5 / vbv_maxrate=62500 / vbv_bufsize=78125 / nal_hrd=none / filler=0 / ip_ratio=1.40 / aq=1:1.00\nEncoded date : UTC 2015-05-30 08:04:07\nTagged date : UTC 2015-05-30 08:05:02\nColor primaries : BT.709\nTransfer characteristics : BT.709\nMatrix coefficients : BT.709\nColor range : Limited\n\nAudio\nID : 2\nFormat : AAC\nFormat/Info : Advanced Audio Codec\nFormat profile : HE-AAC / LC\nCodec ID : 40\nDuration : 1h 40mn\nBit rate mode : Variable\nBit rate : 57.1 Kbps\nMaximum bit rate : 78.5 Kbps\nChannel(s) : 2 channels\nChannel positions : Front: L R\nSampling rate : 48.0 KHz / 24.0 KHz\nCompression mode : Lossy\nStream size : 41.0 MiB (5%)\nLanguage : English\nEncoded date : UTC 2015-05-30 08:00:30\nTagged date : UTC 2015-05-30 08:05:02\n\nMenu\n00:00:00.000 : Main Titles\n00:03:12.000 : Rats In The Basement\n00:06:23.000 : Awful Mother, Awful Name\n00:11:01.000 : &quot;He Wants To See You&quot;\n00:16:00.000 : Stuck Like Glue\n00:18:59.000 : A Friend In Socrates\n00:21:21.000 : A Successful Man's Car\n00:24:01.000 : &quot;Tear It!&quot;\n00:27:22.000 : Like A Man...on A Mission\n00:35:24.000 : Mr. Martin's Loss Of Control\n00:37:53.000 : All Good Things...\n00:41:14.000 : Ben, The Defiant Leader\n00:46:05.000 : Death And Bankruptcy\n00:51:15.000 : Cat, Food\n00:55:31.000 : Father's Things\n01:00:11.000 : Ben Won't Learn\n01:03:32.000 : Position Terminated\n01:09:13.000 : Nasty, White, Dead Rat\n01:11:59.000 : An Army Of Thousands\n01:15:38.000 : &quot;We've Come To See You&quot;\n01:19:26.000 : Cleaning House\n01:22:39.000 : &quot;It's All Over, Ben&quot;\n01:30:28.000 : Friends No More\n01:33:28.000 : Waiting...quiet As A Mouse\n01:35:39.000 : End Credits","torrent":{"xt":"urn:btih:1444f566bfb7e5dae1636eb7cea7bcf85aae4b3d","amp;dn":"Willard+2003+720p+WEB-DL+x264+SSloco","amp;tr":["udp%3A%2F%2Ftracker.openbittorrent.com%3A80","udp%3A%2F%2Fopen.demonii.com%3A1337","udp%3A%2F%2Ftracker.coppersurfer.tk%3A6969","udp%3A%2F%2Fexodus.desync.com%3A6969"],"infoHash":"1444f566bfb7e5dae1636eb7cea7bcf85aae4b3d","infoHashBuffer":{"type":"Buffer","data":[20,68,245,102,191,183,229,218,225,99,110,183,206,167,188,248,90,174,75,61]},"announce":[],"urlList":[]}}